<?xml version="1.0" standalone="no"?>
<svg viewBox="0 0 200 200" xmlns="http://www.w3.org/2000/svg">
  <path fill="#7DCFCB" d="M40.5,-64.1C54.2,-62.2,68.1,-54.8,76,-43.2C83.9,-31.5,85.8,-15.8,82,-2.2C78.3,11.4,68.8,22.8,61.6,35.7C54.4,48.5,49.4,62.7,39.5,66.7C29.6,70.8,14.8,64.6,1.3,62.5C-12.3,60.3,-24.5,62,-37.2,59.6C-49.8,57.1,-62.8,50.4,-72.6,39.8C-82.4,29.2,-89,14.6,-89.3,-0.1C-89.5,-14.9,-83.4,-29.7,-73.5,-40.2C-63.6,-50.6,-49.9,-56.7,-37,-59C-24.1,-61.2,-12.1,-59.7,0.7,-60.9C13.4,-62.1,26.8,-65.9,40.5,-64.1Z" transform="translate(100 100)" />
</svg>
