<?xml version="1.0" standalone="no"?>
<svg viewBox="0 0 200 200" xmlns="http://www.w3.org/2000/svg">
  <path fill="#7CCF8A" d="M30.6,-57C38.8,-48.4,43.7,-38.3,51.3,-28.5C58.8,-18.7,69,-9.4,73.8,2.8C78.7,15,78.4,30,71.5,40.9C64.6,51.8,51.2,58.6,38.2,60.7C25.1,62.8,12.6,60.2,-0.9,61.8C-14.4,63.4,-28.9,69.2,-37.8,64.8C-46.8,60.3,-50.2,45.7,-54.2,33.2C-58.3,20.7,-62.8,10.3,-61.1,1C-59.4,-8.4,-51.4,-16.7,-45.1,-25.2C-38.7,-33.6,-34,-42.1,-26.7,-51.2C-19.5,-60.4,-9.7,-70.2,0.8,-71.5C11.3,-72.8,22.5,-65.7,30.6,-57Z" transform="translate(100 100)" />
</svg>
