<?xml version="1.0" standalone="no"?>
<svg viewBox="0 0 200 200" xmlns="http://www.w3.org/2000/svg">
  <path fill="#7C84CF" d="M34.9,-56.9C48.8,-52.4,66.1,-50.3,77.4,-41.2C88.7,-32.1,94.1,-16,91.5,-1.5C88.9,13.1,78.4,26.1,66.1,33.5C53.8,40.9,39.7,42.6,28.4,48.5C17.1,54.3,8.5,64.3,-3.1,69.7C-14.8,75.1,-29.6,76,-39.2,69.1C-48.8,62.3,-53.3,47.8,-55.6,35C-57.9,22.2,-58,11.1,-61.6,-2.1C-65.2,-15.3,-72.3,-30.6,-70.6,-44.3C-68.8,-58.1,-58.2,-70.3,-45,-75.2C-31.8,-80.1,-15.9,-77.6,-2.7,-72.9C10.5,-68.3,21,-61.4,34.9,-56.9Z" transform="translate(100 100)" />
</svg>
