<?xml version="1.0" standalone="no"?>
<svg viewBox="0 0 200 200" xmlns="http://www.w3.org/2000/svg">
  <path fill="#7CCF8A" d="M31.8,-51.4C46.2,-46.8,66.3,-48.3,76.5,-40.8C86.8,-33.3,87,-16.6,84.6,-1.4C82.2,13.8,77,27.6,70.3,41.3C63.6,54.9,55.4,68.3,43.4,73.5C31.4,78.8,15.7,75.9,2.1,72.3C-11.5,68.7,-23,64.2,-32.7,57.6C-42.4,51,-50.2,42.3,-53,32.3C-55.9,22.3,-53.7,11.2,-52.2,0.9C-50.7,-9.4,-49.8,-18.8,-45.8,-26.9C-41.9,-34.9,-34.9,-41.6,-26.7,-49.8C-18.6,-58.1,-9.3,-67.9,-0.3,-67.3C8.7,-66.8,17.4,-56,31.8,-51.4Z" transform="translate(100 100)" />
</svg>
