<svg id="visual" viewBox="0 0 900 600" width="900" height="600" xmlns="http://www.w3.org/2000/svg" xmlns:xlink="http://www.w3.org/1999/xlink" version="1.1"><path d="M0 519L16.7 516C33.3 513 66.7 507 100 508.5C133.3 510 166.7 519 200 520C233.3 521 266.7 514 300 514C333.3 514 366.7 521 400 524.7C433.3 528.3 466.7 528.7 500 525.8C533.3 523 566.7 517 600 511.2C633.3 505.3 666.7 499.7 700 496.7C733.3 493.7 766.7 493.3 800 493.5C833.3 493.7 866.7 494.3 883.3 494.7L900 495L900 601L883.3 601C866.7 601 833.3 601 800 601C766.7 601 733.3 601 700 601C666.7 601 633.3 601 600 601C566.7 601 533.3 601 500 601C466.7 601 433.3 601 400 601C366.7 601 333.3 601 300 601C266.7 601 233.3 601 200 601C166.7 601 133.3 601 100 601C66.7 601 33.3 601 16.7 601L0 601Z" fill="#69fa93"></path><path d="M0 535L16.7 536.2C33.3 537.3 66.7 539.7 100 539C133.3 538.3 166.7 534.7 200 533.7C233.3 532.7 266.7 534.3 300 531C333.3 527.7 366.7 519.3 400 520.8C433.3 522.3 466.7 533.7 500 534.8C533.3 536 566.7 527 600 523.2C633.3 519.3 666.7 520.7 700 523.2C733.3 525.7 766.7 529.3 800 530.2C833.3 531 866.7 529 883.3 528L900 527L900 601L883.3 601C866.7 601 833.3 601 800 601C766.7 601 733.3 601 700 601C666.7 601 633.3 601 600 601C566.7 601 533.3 601 500 601C466.7 601 433.3 601 400 601C366.7 601 333.3 601 300 601C266.7 601 233.3 601 200 601C166.7 601 133.3 601 100 601C66.7 601 33.3 601 16.7 601L0 601Z" fill="#00dfdc"></path><path d="M0 552L16.7 553.3C33.3 554.7 66.7 557.3 100 554.3C133.3 551.3 166.7 542.7 200 540.3C233.3 538 266.7 542 300 544.8C333.3 547.7 366.7 549.3 400 551.2C433.3 553 466.7 555 500 553.2C533.3 551.3 566.7 545.7 600 544.5C633.3 543.3 666.7 546.7 700 545.3C733.3 544 766.7 538 800 534.7C833.3 531.3 866.7 530.7 883.3 530.3L900 530L900 601L883.3 601C866.7 601 833.3 601 800 601C766.7 601 733.3 601 700 601C666.7 601 633.3 601 600 601C566.7 601 533.3 601 500 601C466.7 601 433.3 601 400 601C366.7 601 333.3 601 300 601C266.7 601 233.3 601 200 601C166.7 601 133.3 601 100 601C66.7 601 33.3 601 16.7 601L0 601Z" fill="#00b7eb"></path><path d="M0 549L16.7 550.5C33.3 552 66.7 555 100 555C133.3 555 166.7 552 200 554C233.3 556 266.7 563 300 565.7C333.3 568.3 366.7 566.7 400 563.2C433.3 559.7 466.7 554.3 500 556C533.3 557.7 566.7 566.3 600 566.3C633.3 566.3 666.7 557.7 700 555.7C733.3 553.7 766.7 558.3 800 559C833.3 559.7 866.7 556.3 883.3 554.7L900 553L900 601L883.3 601C866.7 601 833.3 601 800 601C766.7 601 733.3 601 700 601C666.7 601 633.3 601 600 601C566.7 601 533.3 601 500 601C466.7 601 433.3 601 400 601C366.7 601 333.3 601 300 601C266.7 601 233.3 601 200 601C166.7 601 133.3 601 100 601C66.7 601 33.3 601 16.7 601L0 601Z" fill="#008ae2"></path><path d="M0 568L16.7 571C33.3 574 66.7 580 100 580.5C133.3 581 166.7 576 200 575.2C233.3 574.3 266.7 577.7 300 577.3C333.3 577 366.7 573 400 571.7C433.3 570.3 466.7 571.7 500 574.7C533.3 577.7 566.7 582.3 600 584.3C633.3 586.3 666.7 585.7 700 583.3C733.3 581 766.7 577 800 577.5C833.3 578 866.7 583 883.3 585.5L900 588L900 601L883.3 601C866.7 601 833.3 601 800 601C766.7 601 733.3 601 700 601C666.7 601 633.3 601 600 601C566.7 601 533.3 601 500 601C466.7 601 433.3 601 400 601C366.7 601 333.3 601 300 601C266.7 601 233.3 601 200 601C166.7 601 133.3 601 100 601C66.7 601 33.3 601 16.7 601L0 601Z" fill="#2457c7"></path></svg>