<?xml version="1.0" standalone="no"?>
<svg viewBox="0 0 200 200" xmlns="http://www.w3.org/2000/svg">
  <path fill="#7c84cf80" d="M44.3,-75C57.8,-69,69.2,-57.8,76,-44.4C82.9,-31.1,85,-15.5,85.9,0.5C86.8,16.6,86.5,33.2,78.7,44.9C71,56.6,55.7,63.4,41.4,70.2C27,77,13.5,83.9,0.1,83.6C-13.2,83.4,-26.4,76,-39.7,68.6C-53,61.1,-66.4,53.6,-75.3,42.2C-84.1,30.7,-88.5,15.4,-88,0.3C-87.4,-14.8,-82.1,-29.6,-73.9,-42.1C-65.6,-54.6,-54.5,-64.9,-41.7,-71.3C-28.9,-77.7,-14.5,-80.3,0.5,-81.1C15.4,-81.9,30.9,-81,44.3,-75Z" transform="translate(100 100)" />
</svg>
