<?xml version="1.0" standalone="no"?>
<svg viewBox="0 0 200 200" xmlns="http://www.w3.org/2000/svg">
  <path fill="#7dcfcb8d" d="M42,-73.1C52.8,-66.5,58.9,-52,64.9,-38.5C70.9,-25,76.8,-12.5,79.3,1.4C81.7,15.3,80.7,30.7,74.3,43.5C68,56.3,56.2,66.7,42.9,74.6C29.6,82.6,14.8,88.2,-0.8,89.5C-16.4,90.9,-32.7,88,-46.5,80.3C-60.2,72.5,-71.3,60.1,-79,45.9C-86.8,31.7,-91.1,15.9,-88.3,1.6C-85.5,-12.6,-75.5,-25.2,-67.2,-38.5C-59,-51.7,-52.5,-65.7,-41.6,-72.3C-30.7,-78.9,-15.3,-78,0.1,-78.3C15.6,-78.5,31.2,-79.7,42,-73.1Z" transform="translate(100 100)" />
</svg>
