<?xml version="1.0" standalone="no"?>
<svg viewBox="0 0 200 200" xmlns="http://www.w3.org/2000/svg">
  <path fill="#7C84CF" d="M35.1,-57.4C47.4,-53.7,60.6,-48.1,65.1,-38.3C69.7,-28.4,65.8,-14.2,65.5,-0.1C65.3,13.9,68.8,27.8,64,37.4C59.3,47,46.3,52.3,34.2,59.2C22.2,66,11.1,74.4,0.2,74.1C-10.7,73.8,-21.5,64.8,-33,57.6C-44.5,50.5,-56.8,45.2,-62,35.9C-67.1,26.6,-65.3,13.3,-64.8,0.3C-64.3,-12.7,-65.3,-25.5,-60.1,-34.8C-54.9,-44,-43.5,-49.8,-32.4,-54.2C-21.4,-58.7,-10.7,-61.8,0.4,-62.4C11.4,-63,22.8,-61.2,35.1,-57.4Z" transform="translate(100 100)" />
</svg>
