<?xml version="1.0" standalone="no"?>
<svg viewBox="0 0 200 200" xmlns="http://www.w3.org/2000/svg">
  <path fill="#7DCFCB" d="M30.2,-56.9C39.7,-46.9,48.1,-39.8,59.4,-30.8C70.7,-21.8,85,-10.9,89.4,2.5C93.8,16,88.4,32,79.1,44.4C69.7,56.9,56.5,65.9,42.6,73.7C28.8,81.6,14.4,88.4,2.5,84.2C-9.5,79.9,-18.9,64.5,-28,53.9C-37.1,43.3,-45.8,37.4,-56.1,29.2C-66.3,21,-78,10.5,-80.6,-1.5C-83.1,-13.5,-76.5,-26.9,-67.7,-37.5C-58.8,-48.1,-47.7,-55.7,-36.1,-64.4C-24.4,-73,-12.2,-82.6,-0.9,-81.1C10.4,-79.5,20.8,-66.8,30.2,-56.9Z" transform="translate(100 100)" />
</svg>
